<?xml version="1.0" standalone="no"?><!DOCTYPE svg PUBLIC "-//W3C//DTD SVG 1.1//EN" "http://www.w3.org/Graphics/SVG/1.1/DTD/svg11.dtd"><svg t="1665712229199" class="icon" viewBox="0 0 1024 1024" version="1.1" xmlns="http://www.w3.org/2000/svg" p-id="4374" xmlns:xlink="http://www.w3.org/1999/xlink" width="200" height="200"><path d="M612.352 106.666667v200.533333a42.666667 42.666667 0 0 0 37.717333 42.368l4.992 0.298667H853.333333v524.8a42.666667 42.666667 0 0 1-42.666666 42.666666H213.333333a42.666667 42.666667 0 0 1-42.666666-42.666666v-725.333334a42.666667 42.666667 0 0 1 42.666666-42.666666h399.018667zM512 426.666667a192 192 0 1 0 0 384 192 192 0 0 0 0-384z m34.56 85.333333v74.666667h80.64v64h-80.64V725.333333h-69.12v-74.666666H396.8v-64h80.64V512h69.12zM640 106.666667l213.333333 213.333333h-170.666666a42.666667 42.666667 0 0 1-42.666667-42.666667v-170.666666z" fill="#059e1c" p-id="4375"></path></svg>